<svg xmlns="http://www.w3.org/2000/svg" viewBox="0 0 2000 500"><defs><style>.cls-1{fill:#ffb8ff;}.cls-2{fill:#fa97ff;}.cls-3{fill:#69a6ff;}.cls-4{fill:#191919;}.cls-5{fill:#e4e4e4;}.cls-6{fill:#ea73f4;}.cls-7{fill:#ff45ed;}.cls-8{fill:#ffc0ff;}.cls-9{fill:#fff;}</style></defs><g id="Слой_1" data-name="Слой 1"><path class="cls-1" d="M623,231.64c0,60.2-56.18,92.22-125.5,92.22S372,291.84,372,231.64s56.19-72.91,125.5-72.91S623,171.45,623,231.64Z"/><path class="cls-2" d="M497.52,308.29c-67.9,0-123.21-27.83-125.42-80.24,0,1.18-.08,2.37-.08,3.59,0,60.2,56.19,92.22,125.5,92.22s125.5-32,125.5-92.22c0-1.22,0-2.41-.07-3.59C620.73,280.46,565.43,308.29,497.52,308.29Z"/><ellipse class="cls-3" cx="566.52" cy="213.29" rx="9" ry="12.5" transform="translate(-25.22 85.69) rotate(-8.46)"/><ellipse class="cls-4" cx="566.22" cy="213.84" rx="7.62" ry="10" transform="translate(-25.3 85.65) rotate(-8.46)"/><ellipse class="cls-5" cx="563.68" cy="211.19" rx="2.5" ry="3" transform="translate(-24.94 85.25) rotate(-8.46)"/><ellipse class="cls-3" cx="428.52" cy="213.29" rx="12.5" ry="9" transform="translate(154.49 605.76) rotate(-81.54)"/><ellipse cx="428.83" cy="213.84" rx="10" ry="7.62" transform="translate(154.21 606.53) rotate(-81.54)"/><ellipse class="cls-5" cx="431.36" cy="211.19" rx="3" ry="2.5" transform="translate(159 606.78) rotate(-81.54)"/><path class="cls-6" d="M594.64,177.16A108.43,108.43,0,0,0,599.07,164c10.67-38.05,1.1-105.52-6.34-107.61s-9.46,64-20.13,102c-.88,3.14-1.65,5.88-2.31,8.27A97.37,97.37,0,0,1,594.64,177.16Z"/><path class="cls-7" d="M581.53,170.54c.9.37,1.8.75,2.69,1.14,1-3,2.07-6.54,3.3-10.93,10.66-38,6.27-104.07,5.21-104.37s2.09,67.2-8.58,105.25C583.19,165.08,582.32,168,581.53,170.54Z"/><path class="cls-6" d="M400.41,177.16A108.43,108.43,0,0,1,396,164c-10.67-38.05-1.1-105.52,6.34-107.61s9.46,64,20.13,102c.88,3.14,1.65,5.88,2.31,8.27A97,97,0,0,0,400.41,177.16Z"/><path class="cls-7" d="M413.52,170.54c-.91.37-1.8.75-2.69,1.14-1-3-2.07-6.54-3.3-10.93-10.67-38-6.27-104.07-5.21-104.37s-2.09,67.2,8.57,105.25C411.86,165.08,412.73,168,413.52,170.54Z"/><path class="cls-6" d="M666,94c-5.52-5.36-15.1,53.92-56.17,96.41a57.62,57.62,0,0,1,12,27.42c2.67-2.57,5.42-5.29,8.24-8.19C671.45,167.09,671.56,99.34,666,94Z"/><path class="cls-7" d="M618,204l3.13-3.19C662.43,158.33,666.58,94.5,666,94s-6.28,63.11-47.58,105.62l-1.67,1.7C617.21,202.19,617.62,203.1,618,204Z"/><path class="cls-6" d="M329,94c5.52-5.36,15.09,53.92,56.17,96.41a57.52,57.52,0,0,0-12.05,27.42c-2.68-2.57-5.42-5.29-8.24-8.19C323.59,167.09,323.49,99.34,329,94Z"/><path class="cls-7" d="M377,204l-3.12-3.19C332.61,158.33,328.47,94.5,329,94s6.27,63.11,47.58,105.62l1.67,1.7C377.84,202.19,377.43,203.1,377,204Z"/><path class="cls-6" d="M692.42,171.56c-4-6-24.81,25.89-61,49.95-2.94,2-5.77,3.75-8.51,5.44.08,1.53.12,3.09.12,4.69a85.61,85.61,0,0,1-3.58,24.95,106.24,106.24,0,0,0,25.75-12.77C681.39,219.77,696.43,177.58,692.42,171.56Z"/><path class="cls-7" d="M636.73,232.67c-5,3.31-9.73,6.09-14.2,8.46-.08.81-.18,1.63-.29,2.43A153.26,153.26,0,0,0,638.66,234c36.2-24.06,54.16-61.84,53.76-62.44S672.93,208.61,636.73,232.67Z"/><path class="cls-6" d="M302.63,171.56c4-6,24.8,25.89,61,49.95,2.94,2,5.77,3.75,8.51,5.44-.08,1.53-.13,3.09-.13,4.69a85.27,85.27,0,0,0,3.59,24.95,106.07,106.07,0,0,1-25.75-12.77C313.66,219.77,298.62,177.58,302.63,171.56Z"/><path class="cls-7" d="M358.32,232.67c5,3.31,9.72,6.09,14.2,8.46.08.81.18,1.63.28,2.43A153.19,153.19,0,0,1,356.39,234c-36.21-24.06-54.16-61.84-53.76-62.44S322.12,208.61,358.32,232.67Z"/><path class="cls-5" d="M635.8,411.78c-3.61-3.25-8-5.56-11.5-8.94a25.41,25.41,0,0,1-7.52-15.51c-.5-4.89.44-9.81,1.48-14.62,2.11-9.65,4.67-19.75,1.91-29.23-2.53-8.66-9.14-15.43-15.51-21.82l-12.24-12.29a81.93,81.93,0,0,0-8.33-7.6,122,122,0,0,1-26,12.57l28.15,31.58c3,3.37,6.12,6.95,7.06,11.36.74,3.47,0,7.07-.65,10.55q-2.45,12.27-4.9,24.55c-.83,4.19-1.78,8.61-4.68,11.75-3,3.29-7.65,4.55-11.52,6.8-2,1.18-4,2.93-4.17,5.25-.17,2.67,2.34,4.93,5,5.33s5.29-.61,7.67-1.83c2.56-1.32,5.58-2.94,8.14-1.61,2.87,1.5,3,5.48,3,8.72a47.27,47.27,0,0,0,.92,8.95c.69,3.43,3,7.58,6.41,6.94,3-.55,4-4.23,4.45-7.24q.83-5.94,1.67-11.87a4.6,4.6,0,0,1,.54-1.87c.94-1.49,3.31-1.37,4.67-.25s2,2.87,2.67,4.5a49.61,49.61,0,0,0,9.35,14.7c1.87,2,4.88,4,7.16,2.46,1.81-1.24,1.79-3.92,1.23-6-1.72-6.45-6.49-11.66-8.86-17.9a2.09,2.09,0,0,1,0-2,1.83,1.83,0,0,1,1.47-.53c6.59,0,9.88,10.27,16.44,9.74a2.35,2.35,0,0,0,1.65-.69,2.59,2.59,0,0,0,.46-1.12C642.32,419.79,639.42,415,635.8,411.78Z"/><path class="cls-8" d="M635.8,411.78c-3.61-3.25-8-5.56-11.5-8.94a25.41,25.41,0,0,1-7.52-15.51c-.5-4.89.44-9.81,1.48-14.62,2.11-9.65,4.67-19.75,1.91-29.23-2.53-8.66-9.14-15.43-15.51-21.82l-12.24-12.29a81.93,81.93,0,0,0-8.33-7.6,122,122,0,0,1-26,12.57l28.15,31.58c3,3.37,6.12,6.95,7.06,11.36.74,3.47,0,7.07-.65,10.55q-2.45,12.27-4.9,24.55c-.83,4.19-1.78,8.61-4.68,11.75-3,3.29-7.65,4.55-11.52,6.8-2,1.18-4,2.93-4.17,5.25-.17,2.67,2.34,4.93,5,5.33s5.29-.61,7.67-1.83c2.56-1.32,5.58-2.94,8.14-1.61,2.87,1.5,3,5.48,3,8.72a47.27,47.27,0,0,0,.92,8.95c.69,3.43,3,7.58,6.41,6.94,3-.55,4-4.23,4.45-7.24q.83-5.94,1.67-11.87a4.6,4.6,0,0,1,.54-1.87c.94-1.49,3.31-1.37,4.67-.25s2,2.87,2.67,4.5a49.61,49.61,0,0,0,9.35,14.7c1.87,2,4.88,4,7.16,2.46,1.81-1.24,1.79-3.92,1.23-6-1.72-6.45-6.49-11.66-8.86-17.9a2.09,2.09,0,0,1,0-2,1.83,1.83,0,0,1,1.47-.53c6.59,0,9.88,10.27,16.44,9.74a2.35,2.35,0,0,0,1.65-.69,2.59,2.59,0,0,0,.46-1.12C642.32,419.79,639.42,415,635.8,411.78Z"/><path class="cls-8" d="M359.25,411.78c3.61-3.25,8-5.56,11.49-8.94a25.43,25.43,0,0,0,7.53-15.51c.5-4.89-.44-9.81-1.49-14.62-2.1-9.65-4.67-19.75-1.9-29.23,2.53-8.66,9.13-15.43,15.5-21.82l12.25-12.29a80.88,80.88,0,0,1,8.33-7.6,122,122,0,0,0,26,12.57l-28.16,31.58c-3,3.37-6.11,6.95-7.05,11.36-.74,3.47,0,7.07.65,10.55q2.44,12.27,4.9,24.55c.83,4.19,1.78,8.61,4.68,11.75,3,3.29,7.64,4.55,11.52,6.8,2,1.18,4,2.93,4.17,5.25.17,2.67-2.34,4.93-5,5.33s-5.29-.61-7.67-1.83c-2.57-1.32-5.58-2.94-8.14-1.61-2.88,1.5-2.95,5.48-3,8.72a46.45,46.45,0,0,1-.91,8.95c-.7,3.43-3,7.58-6.41,6.94-3-.55-4-4.23-4.45-7.24q-.84-5.94-1.67-11.87a4.6,4.6,0,0,0-.54-1.87c-.95-1.49-3.31-1.37-4.67-.25s-2,2.87-2.67,4.5a49.61,49.61,0,0,1-9.35,14.7c-1.87,2-4.88,4-7.16,2.46-1.81-1.24-1.79-3.92-1.23-6,1.72-6.45,6.48-11.66,8.86-17.9a2.12,2.12,0,0,0,0-2,1.84,1.84,0,0,0-1.47-.53c-6.59,0-9.88,10.27-16.45,9.74a2.32,2.32,0,0,1-1.64-.69,2.47,2.47,0,0,1-.46-1.12C352.73,419.79,355.63,415,359.25,411.78Z"/></g><g id="Слой_2" data-name="Слой 2"><polygon class="cls-9" points="151.21 158.13 162.02 184.44 172.84 158.13 162.02 131.81 151.21 158.13"/><polygon class="cls-9" points="172.84 158.13 162.02 184.44 232.22 355.29 253.84 355.29 172.84 158.13"/><polygon class="cls-9" points="151.21 158.13 151.21 158.13 151.21 158.13 70.2 355.29 91.83 355.29 162.02 184.44 151.21 158.13"/><rect class="cls-9" x="1012.37" y="130.05" width="20" height="223"/><rect class="cls-9" x="1596.89" y="132.05" width="20" height="223"/><rect class="cls-9" x="1012.37" y="333.05" width="183.32" height="20"/><rect class="cls-9" x="1746.48" y="132.05" width="20" height="223"/><rect class="cls-9" x="1746.48" y="335.05" width="183.32" height="20"/><rect class="cls-9" x="1515.01" y="132.05" width="183.32" height="20"/><path class="cls-9" d="M1355.35,152.05a91.5,91.5,0,1,1-91.5,91.5,91.61,91.61,0,0,1,91.5-91.5m0-20a111.5,111.5,0,1,0,111.5,111.5,111.5,111.5,0,0,0-111.5-111.5Z"/><path class="cls-9" d="M852.71,152.05a91.5,91.5,0,1,1-91.5,91.5,91.61,91.61,0,0,1,91.5-91.5m0-20a111.5,111.5,0,1,0,111.5,111.5,111.5,111.5,0,0,0-111.5-111.5Z"/></g></svg>