<svg id="Слой_1" data-name="Слой 1" xmlns="http://www.w3.org/2000/svg" viewBox="0 0 1000 1000"><defs><style>.cls-1{fill:#ffb8ff;}.cls-2{fill:#fa97ff;}.cls-3{fill:#69a6ff;}.cls-4{fill:#191919;}.cls-5{fill:#e4e4e4;}.cls-6{fill:#ea73f4;}.cls-7{fill:#ff45ed;}.cls-8{fill:#ffc0ff;}</style></defs><path class="cls-1" d="M758.22,470.94c0,123.86-115.61,189.73-258.22,189.73S241.78,594.8,241.78,470.94s115.6-150,258.21-150S758.22,347.08,758.22,470.94Z"/><path class="cls-2" d="M500,628.65c-139.72,0-253.51-57.28-258.06-165.1-.09,2.43-.16,4.88-.16,7.39,0,123.86,115.61,189.73,258.22,189.73S758.22,594.8,758.22,470.94c0-2.51-.07-5-.16-7.39C753.51,571.37,639.72,628.65,500,628.65Z"/><ellipse class="cls-3" cx="641.97" cy="433.18" rx="18.52" ry="25.72" transform="translate(-56.76 99.19) rotate(-8.46)"/><ellipse class="cls-4" cx="641.35" cy="434.31" rx="15.68" ry="20.58" transform="translate(-56.93 99.11) rotate(-8.46)"/><ellipse class="cls-5" cx="636.12" cy="428.85" rx="5.14" ry="6.17" transform="translate(-56.18 98.28) rotate(-8.46)"/><ellipse class="cls-3" cx="358.03" cy="433.18" rx="25.72" ry="18.52" transform="translate(-123.12 723.57) rotate(-81.54)"/><ellipse cx="358.65" cy="434.31" rx="20.58" ry="15.68" transform="translate(-123.71 725.15) rotate(-81.54)"/><ellipse class="cls-5" cx="363.88" cy="428.85" rx="6.17" ry="5.14" transform="translate(-113.85 725.66) rotate(-81.54)"/><path class="cls-6" d="M699.82,358.85a229,229,0,0,0,9.12-27.11c21.95-78.29,2.26-217.12-13.06-221.41s-19.46,131.6-41.41,209.89c-1.81,6.47-3.39,12.09-4.76,17C668.43,342.68,685.28,349.76,699.82,358.85Z"/><path class="cls-7" d="M672.84,345.22c1.87.76,3.71,1.53,5.53,2.34,2-6.06,4.26-13.46,6.79-22.49,22-78.29,12.91-214.13,10.72-214.74s4.31,138.26-17.63,216.55C676.26,334,674.46,340,672.84,345.22Z"/><path class="cls-6" d="M300.18,358.85a229,229,0,0,1-9.12-27.11c-21.95-78.29-2.26-217.12,13.06-221.41s19.46,131.6,41.41,209.89c1.81,6.47,3.39,12.09,4.76,17C331.57,342.68,314.72,349.76,300.18,358.85Z"/><path class="cls-7" d="M327.16,345.22c-1.87.76-3.71,1.53-5.53,2.34-2-6.06-4.26-13.46-6.79-22.49-21.95-78.29-12.91-214.13-10.72-214.74s-4.31,138.26,17.63,216.55C323.74,334,325.54,340,327.16,345.22Z"/><path class="cls-6" d="M846.7,187.66c-11.35-11-31.05,110.94-115.56,198.37,12.43,15.25,21,33.84,24.79,56.43,5.5-5.29,11.14-10.89,17-16.86C857.87,338.12,858.09,198.73,846.7,187.66Z"/><path class="cls-7" d="M747.89,414.12c2.12-2.15,4.26-4.32,6.43-6.56,85-87.47,93.52-218.79,92.38-219.9S833.79,317.52,748.8,405c-1.16,1.2-2.28,2.33-3.42,3.5Q746.7,411.25,747.89,414.12Z"/><path class="cls-6" d="M153.3,187.66c11.35-11,31,110.94,115.56,198.37-12.43,15.25-21,33.84-24.79,56.43-5.5-5.29-11.14-10.89-16.95-16.86C142.13,338.12,141.91,198.73,153.3,187.66Z"/><path class="cls-7" d="M252.11,414.12c-2.12-2.15-4.26-4.32-6.43-6.56-85-87.47-93.52-218.79-92.38-219.9S166.21,317.52,251.2,405c1.16,1.2,2.28,2.33,3.42,3.5Q253.3,411.25,252.11,414.12Z"/><path class="cls-6" d="M901,347.31c-8.24-12.4-51,53.28-125.52,102.78-6.05,4-11.88,7.72-17.52,11.19.16,3.16.26,6.37.26,9.66a175.52,175.52,0,0,1-7.38,51.32c16.16-5.27,34-13.63,53-26.26C878.31,446.5,909.25,359.71,901,347.31Z"/><path class="cls-7" d="M786.41,473a337.36,337.36,0,0,1-29.2,17.41c-.18,1.68-.37,3.35-.59,5a318.22,318.22,0,0,0,33.78-19.67c74.48-49.5,111.43-127.24,110.6-128.48S860.89,423.54,786.41,473Z"/><path class="cls-6" d="M99,347.31c8.24-12.4,51,53.28,125.52,102.78,6,4,11.88,7.72,17.52,11.19-.16,3.16-.26,6.37-.26,9.66a175.52,175.52,0,0,0,7.38,51.32c-16.16-5.27-34-13.63-53-26.26C121.69,446.5,90.75,359.71,99,347.31Z"/><path class="cls-7" d="M213.59,473a337.36,337.36,0,0,0,29.2,17.41c.18,1.68.37,3.35.59,5a319.21,319.21,0,0,1-33.78-19.67C135.12,426.29,98.17,348.55,99,347.31S139.11,423.54,213.59,473Z"/><path class="cls-5" d="M784.51,841.56c-7.44-6.68-16.48-11.43-23.66-18.38a52.39,52.39,0,0,1-15.48-31.91c-1-10.07.9-20.19,3.06-30.08,4.33-19.85,9.6-40.63,3.91-60.14-5.2-17.82-18.79-31.76-31.9-44.91l-25.19-25.27c-5.46-5.48-11-11-17.14-15.63a251.66,251.66,0,0,1-53.54,25.84l57.93,65c6.17,6.92,12.58,14.29,14.52,23.36,1.52,7.14.09,14.55-1.34,21.71q-5,25.26-10.07,50.52c-1.72,8.62-3.68,17.71-9.64,24.17-6.26,6.78-15.73,9.36-23.71,14-4.14,2.41-8.26,6-8.57,10.8-.36,5.49,4.82,10.14,10.25,11s10.88-1.25,15.77-3.76c5.28-2.71,11.49-6,16.75-3.31,5.92,3.08,6.07,11.28,6.11,17.94a95.67,95.67,0,0,0,1.88,18.41c1.43,7.07,6.08,15.59,13.18,14.29,6.15-1.13,8.28-8.72,9.15-14.91l3.45-24.41a9.38,9.38,0,0,1,1.11-3.85c1.94-3.07,6.81-2.82,9.61-.51s4.12,5.9,5.49,9.26A102,102,0,0,0,755.68,901c3.85,4.18,10,8.27,14.73,5.06,3.73-2.56,3.69-8.07,2.53-12.44-3.54-13.27-13.34-24-18.22-36.82-.52-1.37-.94-3,0-4.18a3.78,3.78,0,0,1,3-1.09c13.55,0,20.32,21.14,33.83,20a4.78,4.78,0,0,0,3.38-1.43,5.1,5.1,0,0,0,1-2.3C797.92,858.05,792,848.25,784.51,841.56Z"/><path class="cls-8" d="M784.51,841.56c-7.44-6.68-16.48-11.43-23.66-18.38a52.39,52.39,0,0,1-15.48-31.91c-1-10.07.9-20.19,3.06-30.08,4.33-19.85,9.6-40.63,3.91-60.14-5.2-17.82-18.79-31.76-31.9-44.91l-25.19-25.27c-5.46-5.48-11-11-17.14-15.63a251.66,251.66,0,0,1-53.54,25.84l57.93,65c6.17,6.92,12.58,14.29,14.52,23.36,1.52,7.14.09,14.55-1.34,21.71q-5,25.26-10.07,50.52c-1.72,8.62-3.68,17.71-9.64,24.17-6.26,6.78-15.73,9.36-23.71,14-4.14,2.41-8.26,6-8.57,10.8-.36,5.49,4.82,10.14,10.25,11s10.88-1.25,15.77-3.76c5.28-2.71,11.49-6,16.75-3.31,5.92,3.08,6.07,11.28,6.11,17.94a95.67,95.67,0,0,0,1.88,18.41c1.43,7.07,6.08,15.59,13.18,14.29,6.15-1.13,8.28-8.72,9.15-14.91l3.45-24.41a9.38,9.38,0,0,1,1.11-3.85c1.94-3.07,6.81-2.82,9.61-.51s4.12,5.9,5.49,9.26A102,102,0,0,0,755.68,901c3.85,4.18,10,8.27,14.73,5.06,3.73-2.56,3.69-8.07,2.53-12.44-3.54-13.27-13.34-24-18.22-36.82-.52-1.37-.94-3,0-4.18a3.78,3.78,0,0,1,3-1.09c13.55,0,20.32,21.14,33.83,20a4.78,4.78,0,0,0,3.38-1.43,5.1,5.1,0,0,0,1-2.3C797.92,858.05,792,848.25,784.51,841.56Z"/><path class="cls-8" d="M215.49,841.56c7.44-6.68,16.48-11.43,23.66-18.38a52.39,52.39,0,0,0,15.48-31.91c1-10.07-.9-20.19-3.06-30.08-4.33-19.85-9.6-40.63-3.91-60.14,5.2-17.82,18.79-31.76,31.9-44.91l25.19-25.27c5.46-5.48,11-11,17.14-15.63a251.66,251.66,0,0,0,53.54,25.84l-57.93,65c-6.17,6.92-12.58,14.29-14.52,23.36-1.52,7.14-.09,14.55,1.34,21.71q5,25.26,10.07,50.52c1.72,8.62,3.68,17.71,9.64,24.17,6.26,6.78,15.73,9.36,23.71,14,4.14,2.41,8.26,6,8.57,10.8.36,5.49-4.82,10.14-10.25,11s-10.88-1.25-15.77-3.76c-5.28-2.71-11.49-6-16.75-3.31-5.92,3.08-6.07,11.28-6.11,17.94a95.67,95.67,0,0,1-1.88,18.41c-1.43,7.07-6.08,15.59-13.18,14.29-6.15-1.13-8.28-8.72-9.15-14.91l-3.45-24.41a9.38,9.38,0,0,0-1.11-3.85c-1.94-3.07-6.81-2.82-9.61-.51s-4.12,5.9-5.49,9.26A102,102,0,0,1,244.32,901c-3.85,4.18-10,8.27-14.73,5.06-3.73-2.56-3.69-8.07-2.53-12.44,3.54-13.27,13.34-24,18.22-36.82.52-1.37.94-3,0-4.18a3.78,3.78,0,0,0-3-1.09c-13.55,0-20.32,21.14-33.83,20a4.78,4.78,0,0,1-3.38-1.43,5.1,5.1,0,0,1-.95-2.3C202.08,858.05,208.05,848.25,215.49,841.56Z"/></svg>