<svg id="Слой_1" data-name="Слой 1" xmlns="http://www.w3.org/2000/svg" viewBox="0 0 1000 1000"><defs><style>.cls-1{fill:#d2a4ff;}.cls-2{fill:#ac78ff;}.cls-3{fill:#6c73ff;}.cls-4{fill:#191919;}.cls-5{fill:#e4e4e4;}.cls-6{fill:#a950ff;}.cls-7{fill:#8f00ff;}.cls-8{fill:#d3aeff;}</style></defs><path class="cls-1" d="M758.22,462.23C758.22,586.1,642.61,652,500,652S241.78,586.1,241.78,462.23s115.6-150,258.21-150S758.22,338.37,758.22,462.23Z"/><path class="cls-2" d="M500,619.94c-139.72,0-253.51-57.28-258.06-165.1-.09,2.43-.16,4.88-.16,7.39C241.78,586.1,357.39,652,500,652S758.22,586.1,758.22,462.23c0-2.51-.07-5-.16-7.39C753.51,562.66,639.72,619.94,500,619.94Z"/><ellipse class="cls-3" cx="641.97" cy="424.47" rx="18.52" ry="25.72" transform="translate(-55.47 99.09) rotate(-8.46)"/><ellipse class="cls-4" cx="641.35" cy="425.61" rx="15.68" ry="20.58" transform="translate(-55.65 99.01) rotate(-8.46)"/><ellipse class="cls-5" cx="636.12" cy="420.14" rx="5.14" ry="6.17" transform="translate(-54.9 98.18) rotate(-8.46)"/><ellipse class="cls-3" cx="358.03" cy="424.47" rx="25.72" ry="18.52" transform="translate(-114.51 716.14) rotate(-81.54)"/><ellipse cx="358.65" cy="425.61" rx="20.58" ry="15.68" transform="translate(-115.1 717.73) rotate(-81.54)"/><ellipse class="cls-5" cx="363.88" cy="420.14" rx="6.17" ry="5.14" transform="translate(-105.24 718.23) rotate(-81.54)"/><path class="cls-6" d="M699.82,350.14A228.35,228.35,0,0,0,708.94,323c21.95-78.29,2.26-217.12-13.06-221.41s-19.46,131.6-41.41,209.89c-1.81,6.47-3.39,12.1-4.76,17C668.43,334,685.28,341.05,699.82,350.14Z"/><path class="cls-7" d="M672.84,336.51q2.8,1.14,5.53,2.34c2-6.06,4.26-13.46,6.79-22.49,22-78.29,12.91-214.13,10.72-214.74s4.31,138.27-17.63,216.56C676.26,325.27,674.46,331.33,672.84,336.51Z"/><path class="cls-6" d="M300.18,350.14A228.35,228.35,0,0,1,291.06,323c-21.95-78.29-2.26-217.12,13.06-221.41s19.46,131.6,41.41,209.89c1.81,6.47,3.39,12.1,4.76,17C331.57,334,314.72,341.05,300.18,350.14Z"/><path class="cls-7" d="M327.16,336.51q-2.81,1.14-5.53,2.34c-2-6.06-4.26-13.46-6.79-22.49-21.95-78.29-12.91-214.13-10.72-214.74s-4.31,138.27,17.63,216.56C323.74,325.27,325.54,331.33,327.16,336.51Z"/><path class="cls-6" d="M846.7,179c-11.35-11-31.05,110.94-115.56,198.36,12.43,15.25,21,33.85,24.79,56.43,5.5-5.29,11.14-10.88,17-16.86C857.87,329.41,858.09,190,846.7,179Z"/><path class="cls-7" d="M747.89,405.41c2.12-2.15,4.26-4.31,6.43-6.55,85-87.48,93.52-218.8,92.38-219.9s-12.91,129.85-97.9,217.32c-1.16,1.2-2.28,2.33-3.42,3.5Q746.7,402.54,747.89,405.41Z"/><path class="cls-6" d="M153.3,179c11.35-11,31,110.94,115.56,198.36-12.43,15.25-21,33.85-24.79,56.43-5.5-5.29-11.14-10.88-16.95-16.86C142.13,329.41,141.91,190,153.3,179Z"/><path class="cls-7" d="M252.11,405.41c-2.12-2.15-4.26-4.31-6.43-6.55-85-87.48-93.52-218.8-92.38-219.9s12.91,129.85,97.9,217.32c1.16,1.2,2.28,2.33,3.42,3.5Q253.3,402.54,252.11,405.41Z"/><path class="cls-6" d="M901,338.6c-8.24-12.4-51,53.29-125.52,102.79-6.05,4-11.88,7.72-17.52,11.18.16,3.16.26,6.37.26,9.66a175.52,175.52,0,0,1-7.38,51.32c16.16-5.27,34-13.63,53-26.26C878.31,437.79,909.25,351,901,338.6Z"/><path class="cls-7" d="M786.41,464.34a337.12,337.12,0,0,1-29.2,17.4c-.18,1.68-.37,3.36-.59,5a320.14,320.14,0,0,0,33.78-19.68C864.88,417.58,901.83,339.84,901,338.6S860.89,414.84,786.41,464.34Z"/><path class="cls-6" d="M99,338.6c8.24-12.4,51,53.29,125.52,102.79,6,4,11.88,7.72,17.52,11.18-.16,3.16-.26,6.37-.26,9.66a175.52,175.52,0,0,0,7.38,51.32c-16.16-5.27-34-13.63-53-26.26C121.69,437.79,90.75,351,99,338.6Z"/><path class="cls-7" d="M213.59,464.34a337.12,337.12,0,0,0,29.2,17.4c.18,1.68.37,3.36.59,5a320.14,320.14,0,0,1-33.78-19.68C135.12,417.58,98.17,339.84,99,338.6S139.11,414.84,213.59,464.34Z"/><path class="cls-5" d="M784.51,832.86c-7.44-6.68-16.48-11.43-23.66-18.39a52.36,52.36,0,0,1-15.48-31.9c-1-10.07.9-20.2,3.06-30.09,4.33-19.85,9.6-40.63,3.91-60.14-5.2-17.82-18.79-31.76-31.9-44.91l-25.19-25.27c-5.46-5.48-11-11-17.14-15.63a252.16,252.16,0,0,1-53.54,25.85l57.93,65c6.17,6.93,12.58,14.29,14.52,23.36,1.52,7.15.09,14.55-1.34,21.72q-5,25.24-10.07,50.51c-1.72,8.62-3.68,17.71-9.64,24.17-6.26,6.78-15.73,9.36-23.71,14-4.14,2.41-8.26,6-8.57,10.8-.36,5.48,4.82,10.13,10.25,11s10.88-1.25,15.77-3.77c5.28-2.71,11.49-6,16.75-3.3,5.92,3.07,6.07,11.27,6.11,17.94a95.65,95.65,0,0,0,1.88,18.4c1.43,7.07,6.08,15.59,13.18,14.29,6.15-1.13,8.28-8.72,9.15-14.91l3.45-24.41a9.47,9.47,0,0,1,1.11-3.85c1.94-3.06,6.81-2.82,9.61-.51s4.12,5.9,5.49,9.26a102,102,0,0,0,19.24,30.24c3.85,4.18,10,8.27,14.73,5.06,3.73-2.56,3.69-8.07,2.53-12.44-3.54-13.27-13.34-24-18.22-36.82-.52-1.37-.94-3,0-4.18a3.81,3.81,0,0,1,3-1.09c13.55,0,20.32,21.14,33.83,20.05a4.78,4.78,0,0,0,3.38-1.43,5.1,5.1,0,0,0,1-2.3C797.92,849.34,792,839.54,784.51,832.86Z"/><path class="cls-8" d="M784.51,832.86c-7.44-6.68-16.48-11.43-23.66-18.39a52.36,52.36,0,0,1-15.48-31.9c-1-10.07.9-20.2,3.06-30.09,4.33-19.85,9.6-40.63,3.91-60.14-5.2-17.82-18.79-31.76-31.9-44.91l-25.19-25.27c-5.46-5.48-11-11-17.14-15.63a252.16,252.16,0,0,1-53.54,25.85l57.93,65c6.17,6.93,12.58,14.29,14.52,23.36,1.52,7.15.09,14.55-1.34,21.72q-5,25.24-10.07,50.51c-1.72,8.62-3.68,17.71-9.64,24.17-6.26,6.78-15.73,9.36-23.71,14-4.14,2.41-8.26,6-8.57,10.8-.36,5.48,4.82,10.13,10.25,11s10.88-1.25,15.77-3.77c5.28-2.71,11.49-6,16.75-3.3,5.92,3.07,6.07,11.27,6.11,17.94a95.65,95.65,0,0,0,1.88,18.4c1.43,7.07,6.08,15.59,13.18,14.29,6.15-1.13,8.28-8.72,9.15-14.91l3.45-24.41a9.47,9.47,0,0,1,1.11-3.85c1.94-3.06,6.81-2.82,9.61-.51s4.12,5.9,5.49,9.26a102,102,0,0,0,19.24,30.24c3.85,4.18,10,8.27,14.73,5.06,3.73-2.56,3.69-8.07,2.53-12.44-3.54-13.27-13.34-24-18.22-36.82-.52-1.37-.94-3,0-4.18a3.81,3.81,0,0,1,3-1.09c13.55,0,20.32,21.14,33.83,20.05a4.78,4.78,0,0,0,3.38-1.43,5.1,5.1,0,0,0,1-2.3C797.92,849.34,792,839.54,784.51,832.86Z"/><path class="cls-8" d="M215.49,832.86c7.44-6.68,16.48-11.43,23.66-18.39a52.36,52.36,0,0,0,15.48-31.9c1-10.07-.9-20.2-3.06-30.09-4.33-19.85-9.6-40.63-3.91-60.14,5.2-17.82,18.79-31.76,31.9-44.91l25.19-25.27c5.46-5.48,11-11,17.14-15.63a252.16,252.16,0,0,0,53.54,25.85l-57.93,65c-6.17,6.93-12.58,14.29-14.52,23.36-1.52,7.15-.09,14.55,1.34,21.72q5,25.24,10.07,50.51c1.72,8.62,3.68,17.71,9.64,24.17,6.26,6.78,15.73,9.36,23.71,14,4.14,2.41,8.26,6,8.57,10.8.36,5.48-4.82,10.13-10.25,11s-10.88-1.25-15.77-3.77c-5.28-2.71-11.49-6-16.75-3.3-5.92,3.07-6.07,11.27-6.11,17.94a95.65,95.65,0,0,1-1.88,18.4c-1.43,7.07-6.08,15.59-13.18,14.29-6.15-1.13-8.28-8.72-9.15-14.91l-3.45-24.41a9.47,9.47,0,0,0-1.11-3.85c-1.94-3.06-6.81-2.82-9.61-.51s-4.12,5.9-5.49,9.26a102,102,0,0,1-19.24,30.24c-3.85,4.18-10,8.27-14.73,5.06-3.73-2.56-3.69-8.07-2.53-12.44,3.54-13.27,13.34-24,18.22-36.82.52-1.37.94-3,0-4.18a3.81,3.81,0,0,0-3-1.09c-13.55,0-20.32,21.14-33.83,20.05a4.76,4.76,0,0,1-3.38-1.43,5.1,5.1,0,0,1-.95-2.3C202.08,849.34,208.05,839.54,215.49,832.86Z"/></svg>