<svg xmlns="http://www.w3.org/2000/svg" viewBox="0 0 1000 1000"><defs><style>.cls-1{fill:#d2a4ff;}.cls-2{fill:#ac78ff;}.cls-3{fill:#6c73ff;}.cls-4{fill:#191919;}.cls-5{fill:#e4e4e4;}.cls-6{fill:#a950ff;}.cls-7{fill:#8f00ff;}.cls-8{fill:#d3aeff;}</style></defs><g id="Слой_1" data-name="Слой 1"><path class="cls-1" d="M625.5,490.35c0,60.2-56.19,92.22-125.5,92.22s-125.5-32-125.5-92.22,56.18-72.92,125.5-72.92S625.5,430.15,625.5,490.35Z"/><path class="cls-2" d="M500,567c-67.91,0-123.21-27.84-125.42-80.24-.05,1.18-.08,2.37-.08,3.59,0,60.2,56.19,92.22,125.5,92.22s125.5-32,125.5-92.22c0-1.22,0-2.41-.08-3.59C623.21,539.16,567.91,567,500,567Z"/><ellipse class="cls-3" cx="569" cy="472" rx="9" ry="12.5" transform="translate(-63.26 88.87) rotate(-8.46)"/><ellipse class="cls-4" cx="568.7" cy="472.55" rx="7.62" ry="10" transform="translate(-63.35 88.83) rotate(-8.46)"/><ellipse class="cls-5" cx="566.16" cy="469.9" rx="2.5" ry="3" transform="translate(-62.98 88.43) rotate(-8.46)"/><ellipse class="cls-3" cx="431" cy="472" rx="12.5" ry="9" transform="translate(-99.29 828.85) rotate(-81.54)"/><ellipse cx="431.3" cy="472.55" rx="10" ry="7.62" transform="translate(-99.57 829.62) rotate(-81.54)"/><ellipse class="cls-5" cx="433.84" cy="469.9" rx="3" ry="2.5" transform="translate(-94.78 829.86) rotate(-81.54)"/><path class="cls-6" d="M597.12,435.87a112,112,0,0,0,4.43-13.17c10.67-38.05,1.1-105.53-6.35-107.61s-9.46,64-20.12,102l-2.32,8.26A97.29,97.29,0,0,1,597.12,435.87Z"/><path class="cls-7" d="M584,429.25c.91.37,1.81.75,2.69,1.14,1-2.95,2.07-6.55,3.3-10.93,10.67-38,6.28-104.08,5.21-104.37s2.1,67.2-8.57,105.25C585.66,423.78,584.79,426.73,584,429.25Z"/><path class="cls-6" d="M402.88,435.87a112,112,0,0,1-4.43-13.17c-10.67-38.05-1.1-105.53,6.35-107.61s9.46,64,20.12,102l2.32,8.26A97.29,97.29,0,0,0,402.88,435.87Z"/><path class="cls-7" d="M416,429.25c-.91.37-1.81.75-2.69,1.14-1-2.95-2.07-6.55-3.3-10.93-10.67-38-6.28-104.08-5.21-104.37s-2.1,67.2,8.57,105.25C414.34,423.78,415.21,426.73,416,429.25Z"/><path class="cls-6" d="M668.5,352.67c-5.51-5.35-15.09,53.92-56.16,96.41a57.8,57.8,0,0,1,12,27.43c2.67-2.57,5.41-5.29,8.24-8.2C673.93,425.8,674,358.05,668.5,352.67Z"/><path class="cls-7" d="M620.48,462.74l3.13-3.19c41.3-42.51,45.45-106.34,44.89-106.88s-6.27,63.12-47.58,105.63l-1.66,1.7C619.69,460.9,620.09,461.81,620.48,462.74Z"/><path class="cls-6" d="M331.5,352.67c5.51-5.35,15.09,53.92,56.16,96.41a57.8,57.8,0,0,0-12.05,27.43c-2.67-2.57-5.41-5.29-8.24-8.2C326.07,425.8,326,358.05,331.5,352.67Z"/><path class="cls-7" d="M379.52,462.74l-3.13-3.19C335.09,417,330.94,353.21,331.5,352.67s6.27,63.12,47.58,105.63l1.66,1.7C380.31,460.9,379.91,461.81,379.52,462.74Z"/><path class="cls-6" d="M694.9,430.26c-4-6-24.81,25.9-61,50-2.94,1.95-5.77,3.75-8.52,5.44.08,1.53.13,3.09.13,4.69a85.32,85.32,0,0,1-3.59,24.95,106.48,106.48,0,0,0,25.76-12.77C683.87,478.47,698.9,436.29,694.9,430.26Z"/><path class="cls-7" d="M639.2,491.37A162.76,162.76,0,0,1,625,499.83c-.09.82-.18,1.63-.29,2.44a154.25,154.25,0,0,0,16.42-9.56c36.2-24.06,54.16-61.84,53.76-62.45S675.4,467.32,639.2,491.37Z"/><path class="cls-6" d="M305.1,430.26c4-6,24.81,25.9,61,50,2.94,1.95,5.77,3.75,8.52,5.44-.08,1.53-.13,3.09-.13,4.69a85.32,85.32,0,0,0,3.59,24.95,106.48,106.48,0,0,1-25.76-12.77C316.13,478.47,301.1,436.29,305.1,430.26Z"/><path class="cls-7" d="M360.8,491.37A162.76,162.76,0,0,0,375,499.83c.09.82.18,1.63.29,2.44a154.25,154.25,0,0,1-16.42-9.56c-36.2-24.06-54.16-61.84-53.76-62.45S324.6,467.32,360.8,491.37Z"/><path class="cls-5" d="M638.28,670.48c-3.62-3.24-8-5.55-11.5-8.93A25.44,25.44,0,0,1,619.26,646c-.51-4.89.43-9.81,1.48-14.62,2.1-9.65,4.67-19.75,1.9-29.23-2.53-8.66-9.13-15.44-15.5-21.83q-6.12-6.14-12.25-12.28a79.86,79.86,0,0,0-8.33-7.6,122.75,122.75,0,0,1-26,12.57q14.09,15.78,28.16,31.58c3,3.36,6.11,6.94,7,11.35.75,3.48,0,7.07-.64,10.56q-2.46,12.27-4.9,24.55c-.84,4.19-1.79,8.61-4.68,11.74-3,3.3-7.65,4.56-11.53,6.81-2,1.17-4,2.93-4.17,5.25-.17,2.67,2.35,4.93,5,5.33s5.29-.61,7.66-1.83c2.57-1.32,5.59-2.94,8.14-1.61,2.88,1.5,3,5.48,3,8.72a46.28,46.28,0,0,0,.92,8.94c.69,3.44,3,7.58,6.4,6.95,3-.55,4-4.24,4.45-7.25q.84-5.92,1.67-11.86a4.61,4.61,0,0,1,.55-1.87c.94-1.49,3.3-1.37,4.67-.25s2,2.87,2.67,4.5a49.5,49.5,0,0,0,9.34,14.7c1.88,2,4.89,4,7.17,2.46,1.81-1.24,1.79-3.92,1.22-6.05-1.71-6.45-6.48-11.66-8.85-17.89a2.09,2.09,0,0,1,0-2,1.83,1.83,0,0,1,1.48-.53c6.58,0,9.87,10.27,16.44,9.74a2.32,2.32,0,0,0,1.64-.69,2.52,2.52,0,0,0,.46-1.12C644.79,678.49,641.89,673.73,638.28,670.48Z"/><path class="cls-8" d="M638.28,670.48c-3.62-3.24-8-5.55-11.5-8.93A25.44,25.44,0,0,1,619.26,646c-.51-4.89.43-9.81,1.48-14.62,2.1-9.65,4.67-19.75,1.9-29.23-2.53-8.66-9.13-15.44-15.5-21.83q-6.12-6.14-12.25-12.28a79.86,79.86,0,0,0-8.33-7.6,122.75,122.75,0,0,1-26,12.57q14.09,15.78,28.16,31.58c3,3.36,6.11,6.94,7,11.35.75,3.48,0,7.07-.64,10.56q-2.46,12.27-4.9,24.55c-.84,4.19-1.79,8.61-4.68,11.74-3,3.3-7.65,4.56-11.53,6.81-2,1.17-4,2.93-4.17,5.25-.17,2.67,2.35,4.93,5,5.33s5.29-.61,7.66-1.83c2.57-1.32,5.59-2.94,8.14-1.61,2.88,1.5,3,5.48,3,8.72a46.28,46.28,0,0,0,.92,8.94c.69,3.44,3,7.58,6.4,6.95,3-.55,4-4.24,4.45-7.25q.84-5.92,1.67-11.86a4.61,4.61,0,0,1,.55-1.87c.94-1.49,3.3-1.37,4.67-.25s2,2.87,2.67,4.5a49.5,49.5,0,0,0,9.34,14.7c1.88,2,4.89,4,7.17,2.46,1.81-1.24,1.79-3.92,1.22-6.05-1.71-6.45-6.48-11.66-8.85-17.89a2.09,2.09,0,0,1,0-2,1.83,1.83,0,0,1,1.48-.53c6.58,0,9.87,10.27,16.44,9.74a2.32,2.32,0,0,0,1.64-.69,2.52,2.52,0,0,0,.46-1.12C644.79,678.49,641.89,673.73,638.28,670.48Z"/><path class="cls-8" d="M361.72,670.48c3.62-3.24,8-5.55,11.5-8.93A25.44,25.44,0,0,0,380.74,646c.51-4.89-.43-9.81-1.48-14.62-2.1-9.65-4.67-19.75-1.9-29.23,2.53-8.66,9.13-15.44,15.5-21.83q6.12-6.14,12.25-12.28a79.86,79.86,0,0,1,8.33-7.6,122.75,122.75,0,0,0,26,12.57q-14.08,15.78-28.16,31.58c-3,3.36-6.11,6.94-7.05,11.35-.75,3.48-.05,7.07.64,10.56q2.46,12.27,4.9,24.55c.84,4.19,1.79,8.61,4.68,11.74,3,3.3,7.65,4.56,11.53,6.81,2,1.17,4,2.93,4.17,5.25.17,2.67-2.35,4.93-5,5.33s-5.29-.61-7.66-1.83c-2.57-1.32-5.59-2.94-8.14-1.61-2.88,1.5-2.95,5.48-3,8.72a46.28,46.28,0,0,1-.92,8.94c-.69,3.44-2.95,7.58-6.4,6.95-3-.55-4-4.24-4.45-7.25q-.84-5.92-1.67-11.86a4.61,4.61,0,0,0-.55-1.87c-.94-1.49-3.3-1.37-4.67-.25s-2,2.87-2.67,4.5a49.5,49.5,0,0,1-9.34,14.7c-1.88,2-4.89,4-7.17,2.46-1.81-1.24-1.79-3.92-1.22-6.05,1.71-6.45,6.48-11.66,8.85-17.89a2.09,2.09,0,0,0,0-2,1.83,1.83,0,0,0-1.48-.53c-6.58,0-9.87,10.27-16.44,9.74a2.32,2.32,0,0,1-1.64-.69,2.52,2.52,0,0,1-.46-1.12C355.21,678.49,358.11,673.73,361.72,670.48Z"/></g><g id="Слой_2" data-name="Слой 2"><polygon points="153.69 416.83 164.5 443.15 175.31 416.83 164.5 390.52 153.69 416.83"/><polygon points="175.31 416.83 164.5 443.15 234.7 614 256.32 614 175.31 416.83"/><polygon points="153.69 416.83 153.69 416.83 153.69 416.83 72.68 614 94.3 614 164.5 443.15 153.69 416.83"/><rect x="743.68" y="391" width="20" height="223"/><rect x="744" y="594" width="183" height="20"/></g></svg>